<svg class="animated" id="freepik_stories-halloween-pumpkin-with-a-face-mask" xmlns="http://www.w3.org/2000/svg" viewBox="0 0 500 500" version="1.1" xmlns:xlink="http://www.w3.org/1999/xlink" xmlns:svgjs="http://svgjs.com/svgjs"><style>svg#freepik_stories-halloween-pumpkin-with-a-face-mask:not(.animated) .animable {opacity: 0;}svg#freepik_stories-halloween-pumpkin-with-a-face-mask.animated #freepik--background-complete--inject-48 {animation: 1.5s Infinite  linear heartbeat;animation-delay: 0s;}svg#freepik_stories-halloween-pumpkin-with-a-face-mask.animated #freepik--Bats--inject-48 {animation: 1.5s Infinite  linear heartbeat;animation-delay: 0s;}            @keyframes heartbeat {                0% {                    transform: scale(1);                }                10% {                    transform: scale(1.1);                }                30% {                    transform: scale(1);                }                40% {                    transform: scale(1);                }                50% {                    transform: scale(1.1);                }                60% {                    transform: scale(1);                }                100% {                    transform: scale(1);                }            }        </style><g id="freepik--background-complete--inject-48" class="animable" style="transform-origin: 260.805px 240.88px;"><path d="M350.11,136.34c-.63-3.27,1.87-6.48,4.9-7.86s6.48-1.43,9.81-1.61,6.83-.6,9.51-2.58,4.3-5.45,7.28-7.11c4-2.23,8.94-.53,13.51-.83a21.91,21.91,0,0,0,7.6-2.12A183.54,183.54,0,0,0,248.61,30.52c-101.45,0-183.69,82.25-183.69,183.7a184.16,184.16,0,0,0,4.35,39.84c2.72-.62,5.23-2.15,7.76-3.42,3-1.54,6.67-2.72,9.82-1.39,4.2,1.77,5.92,7.34,10.24,8.84,2,.7,4.17.38,6.27.55,4.4.35,10.26,3.77,9.69,7.92l-40.43.4A183.72,183.72,0,1,0,414.72,135.7Z" style="fill: rgb(245, 245, 245); transform-origin: 248.609px 214.18px;" id="el59xumgr7ak7" class="animable"></path><path d="M280.81,89.73s-6.55,1.36-10.64,5.18-17.44,21.54-17.44,21.54h3.54s-12.81,14.44-12.81,18a3.91,3.91,0,0,0,3,4.09s-1.09,6.81,2.18,3.81c0,0-16.09,16.09-14.45,17.45s4.36,0,4.36,0l-4.48,10.09s3.39,4.36,6.66,2.73l7.09-2.46s-1.36,3.19,1.36,2.82,21-28.44,21-28.44,9.82-1.64,15.54-7.09,16.36-31.9,17.72-36.26,1.37-11.45,1.37-11.45-.82-7.63-5.73-9S289.26,78.55,280.81,89.73Z" style="fill: rgb(224, 224, 224); transform-origin: 269.44px 126.487px;" id="el2ge01njheoo" class="animable"></path><path d="M299.48,82.34s.25.11.67.2c3.06.62,12.16,1,15.47,4.23,2.81,2.73,2.79,3.58,2.79,3.58A34,34,0,0,1,313.78,89c-2.19-.82-10.48-.26-10.48-.26" style="fill: rgb(224, 224, 224); transform-origin: 308.945px 86.345px;" id="el0v4jc5f5rvwk" class="animable"></path><path d="M228.32,143.12,285.24,132l61.41,45.33L289,130.06l-59.31,6.41L233,119.84l-2.18-71.19L228.91,52l1.21,66.45-7.51,22.34-60.49,65.74-27.37-78.69,5.84-61.76q-3.09,2.32-6.06,4.77l-8.31,59.87,19.3,79.67L131.68,323.86l38.77,53.87a182.63,182.63,0,0,0,18.42,7.81L187.46,374l45.86-47.17L255.9,274l54.36-55.28h-2.84l-54.85,53.86-21.63,52.3-48.23,46.23L145,321l19-106.41Z" style="fill: rgb(224, 224, 224); transform-origin: 236.435px 217.095px;" id="elb0trx8dh0bl" class="animable"></path><path d="M210.25,235.62c.07-.12,1.87.81,4.74,2.4s6.79,3.84,11.09,6.38,8.17,4.89,10.95,6.63,4.46,2.88,4.39,3-1.87-.81-4.74-2.4-6.79-3.84-11.1-6.39-8.17-4.89-11-6.63A29,29,0,0,1,210.25,235.62Z" style="fill: rgb(224, 224, 224); transform-origin: 225.836px 244.825px;" id="elygye35irkib" class="animable"></path><path d="M81.09,197.83a3.75,3.75,0,0,1,.61.8L83.29,201c1.39,2.07,3.35,5.08,5.91,8.72A302.35,302.35,0,0,0,110.64,237c4.49,5.07,9,9.71,13,14,2,2.16,4,4.16,5.68,6.14s3.2,3.93,4.52,5.73a93.52,93.52,0,0,1,5.79,8.84c.62,1.08,1.08,1.93,1.38,2.51a4.31,4.31,0,0,1,.41.92,3.81,3.81,0,0,1-.58-.82c-.41-.64-.92-1.44-1.53-2.42-1.34-2.09-3.32-5.09-6-8.62-1.35-1.76-2.87-3.65-4.58-5.62s-3.72-3.92-5.74-6.06c-4-4.26-8.57-8.89-13.08-14a259.36,259.36,0,0,1-21.28-27.53c-2.49-3.7-4.37-6.78-5.66-8.91-.58-1-1-1.82-1.44-2.48A3.53,3.53,0,0,1,81.09,197.83Z" style="fill: rgb(224, 224, 224); transform-origin: 111.255px 236.485px;" id="elccj7z0l25rv" class="animable"></path><path d="M146.51,339.75a24.25,24.25,0,0,1,2.44,1.73,44.51,44.51,0,0,0,6.17,3.65,43,43,0,0,0,6.7,2.54,25,25,0,0,1,2.88.84,10.84,10.84,0,0,1-3-.44,32.48,32.48,0,0,1-6.85-2.41,33.33,33.33,0,0,1-6.17-3.85A11.22,11.22,0,0,1,146.51,339.75Z" style="fill: rgb(245, 245, 245); transform-origin: 155.605px 344.13px;" id="el68x5hg1g6za" class="animable"></path><path d="M140.25,276.31a6.05,6.05,0,0,1,.09,1.35c0,1.1.07,2.32.11,3.67a100.89,100.89,0,0,0,3.81,23.83c.39,1.3.73,2.47,1,3.52a5.58,5.58,0,0,1,.34,1.31,5.58,5.58,0,0,1-.55-1.23c-.33-.81-.75-2-1.22-3.48A82,82,0,0,1,140,281.34c0-1.56,0-2.81.08-3.68A6,6,0,0,1,140.25,276.31Z" style="fill: rgb(245, 245, 245); transform-origin: 142.8px 293.15px;" id="elvksztlb2qu" class="animable"></path><path d="M147,251.32a37.24,37.24,0,0,1,.67,6,50.77,50.77,0,0,1-2,16.31l-.15.5-.25-.46c-1.52-2.73-1.48-6.18-1.3-9.61s.34-7.14.62-11c.58-7.7,1.58-16.17,4.33-24.62a15.74,15.74,0,0,1,3.36-6.18,3.27,3.27,0,0,1,1.58-1,1.7,1.7,0,0,1,1.78.72,5.66,5.66,0,0,1,.48,3.46c-.29,4.42-.56,8.7-.82,12.77-.53,8.12-1,15.44-1.42,21.63a108.44,108.44,0,0,1-1.52,14.55,27.76,27.76,0,0,1-1.51,5.14,1.74,1.74,0,0,1,.08-.34c.09-.28.18-.6.3-1,.25-.87.58-2.17.9-3.86a115.14,115.14,0,0,0,1.34-14.52c.37-6.2.81-13.52,1.29-21.64.25-4.08.51-8.35.78-12.78a5.13,5.13,0,0,0-.38-3.09,1.1,1.1,0,0,0-1.18-.48,2.79,2.79,0,0,0-1.28.81,15.31,15.31,0,0,0-3.23,6c-2.72,8.37-3.73,16.79-4.33,24.47-.3,3.84-.49,7.52-.67,11s-.24,6.77,1.18,9.38l-.4,0a52.2,52.2,0,0,0,2.18-16.19c0-1.94-.19-3.44-.29-4.46,0-.45-.09-.83-.12-1.16A1.52,1.52,0,0,1,147,251.32Z" style="fill: rgb(245, 245, 245); transform-origin: 150.045px 250.375px;" id="el8jbt7uhk1eu" class="animable"></path><path d="M218.39,202a18.2,18.2,0,0,1,1.52,2.78l3.79,7.77c3.15,6.58,7.43,15.71,12,25.87l3.27,7.44,1.52,3.56a24.19,24.19,0,0,1,1.18,3.55c.61,2.23,2.27,3.88,3.66,5.49l3.95,4.47,5.67,6.52a19.24,19.24,0,0,1,2,2.48,19.39,19.39,0,0,1-2.26-2.23l-5.9-6.31-4-4.39c-1.4-1.57-3.19-3.27-3.92-5.76a23.51,23.51,0,0,0-1.18-3.46c-.5-1.16-1-2.34-1.54-3.54l-3.28-7.42-11.72-26-3.5-7.89A22.06,22.06,0,0,1,218.39,202Z" style="fill: rgb(224, 224, 224); transform-origin: 237.67px 236.965px;" id="el8fchzq36sj4" class="animable"></path><path d="M207.59,209.26c.16-.22,5.22,3.25,11.31,7.75s10.88,8.32,10.72,8.54-5.22-3.26-11.3-7.76S207.43,209.47,207.59,209.26Z" style="fill: rgb(224, 224, 224); transform-origin: 218.605px 217.405px;" id="elbjdq1hciiy" class="animable"></path><path d="M232.63,233.51c-.14,0-.28-2.16-.34-5.66s0-8.33.15-13.66.5-10.16.81-13.65a31.64,31.64,0,0,1,.74-5.62c.14,0,.09,2.18-.05,5.67-.15,3.79-.33,8.46-.53,13.63s-.31,9.84-.43,13.64A35.74,35.74,0,0,1,232.63,233.51Z" style="fill: rgb(224, 224, 224); transform-origin: 233.17px 214.215px;" id="elp88v6hg3gwo" class="animable"></path><path d="M292.24,234.73a2.83,2.83,0,0,1,1.57-.69,14.32,14.32,0,0,1,4.65.07c3.79.66,9.09-.27,15-.83s11.22-1.11,15.09-1.42a41.6,41.6,0,0,1,6.28-.31c0,.14-2.36.51-6.21,1s-9.17,1.1-15.06,1.71-11.27,1.39-15.18.55a16,16,0,0,0-4.49-.38C292.82,234.53,292.27,234.81,292.24,234.73Z" style="fill: rgb(224, 224, 224); transform-origin: 313.535px 233.357px;" id="el7pbixo23hno" class="animable"></path><path d="M314,234c-.57-.26,1,.48,3.06,1.65l8.17,4.67c6.38,3.67,11.55,6.62,11.43,6.87s-1.44-.47-3.61-1.55-5.11-2.64-8.3-4.48-6-3.59-8.05-4.92c-1-.67-1.82-1.22-2.36-1.63-.24-.23-.54-.27-.59-.64a.16.16,0,0,1,.29-.07C314,234,313.94,234,314,234Z" style="fill: rgb(224, 224, 224); transform-origin: 325.206px 240.535px;" id="el41chks6f2et" class="animable"></path><path d="M286.27,131.94a13.49,13.49,0,0,1,1.94-1.76c1.29-1.09,3.19-2.62,5.56-4.47,4.74-3.72,11.4-8.71,18.94-14s14.54-9.76,19.67-12.91C335,97.25,337,96,338.51,95.17A13.32,13.32,0,0,1,340.83,94a13.26,13.26,0,0,1-2.13,1.53l-5.95,3.92c-5,3.3-11.95,7.89-19.48,13.13S299,122.68,294.19,126.26l-5.74,4.22A13.68,13.68,0,0,1,286.27,131.94Z" style="fill: rgb(224, 224, 224); transform-origin: 313.55px 112.97px;" id="el9suhgbq5mxs" class="animable"></path><path d="M327.75,101.62c-.24-.15,1.61-3.34,3.27-7.53s2.53-7.77,2.82-7.71-.19,3.78-1.91,8.07S328,101.77,327.75,101.62Z" style="fill: rgb(224, 224, 224); transform-origin: 330.824px 94.0023px;" id="elr2g4p511o8p" class="animable"></path><path d="M305.45,117.56c-.06-.27,8.83-2.56,19.85-5.13s20-4.44,20.07-4.18-8.83,2.56-19.85,5.13S305.52,117.82,305.45,117.56Z" style="fill: rgb(224, 224, 224); transform-origin: 325.41px 112.905px;" id="el1w6crg1jh4vh" class="animable"></path><path d="M230.14,126.89s.16-.27.55-.71l1.71-1.89,6.38-6.88c5.4-5.8,12.83-13.83,20.89-22.83s15.24-17.27,20.41-23.27l6.13-7.1,1.7-1.91c.39-.43.61-.64.64-.62a3.74,3.74,0,0,1-.49.75l-1.56,2c-1.36,1.75-3.38,4.25-5.9,7.3-5,6.12-12.13,14.47-20.2,23.48s-15.59,17-21.12,22.66c-2.76,2.84-5,5.11-6.61,6.66l-1.84,1.77A3.74,3.74,0,0,1,230.14,126.89Z" style="fill: rgb(224, 224, 224); transform-origin: 259.345px 94.2843px;" id="elrnj5ls76swl" class="animable"></path><path d="M265,88.7a36.66,36.66,0,0,1,5.26-2.87c3.3-1.66,7.9-3.89,13-6.31s9.74-4.55,13.12-6a37.62,37.62,0,0,1,5.55-2.25c.06.12-1.95,1.21-5.26,2.87s-7.89,3.9-13,6.31-9.74,4.55-13.11,6S265,88.82,265,88.7Z" style="fill: rgb(224, 224, 224); transform-origin: 283.466px 79.9902px;" id="elo17ndsl3orf" class="animable"></path><path d="M266.08,71.79c.26.09-1.45,5.63-3.47,12.49S259,96.72,258.73,96.65s.9-5.76,2.94-12.65S265.84,71.7,266.08,71.79Z" style="fill: rgb(224, 224, 224); transform-origin: 262.399px 84.2198px;" id="el61jg8l5amut" class="animable"></path><path d="M235.86,16.93a31.35,31.35,0,0,1-.32,5.7c-.34,3.5-.94,8.33-1.77,13.64s-1.74,10.1-2.48,13.54a31.64,31.64,0,0,1-1.43,5.52c-.14,0,.18-2.18.75-5.65.61-3.77,1.37-8.42,2.2-13.56s1.48-9.8,2-13.58C235.37,19.06,235.72,16.91,235.86,16.93Z" style="fill: rgb(224, 224, 224); transform-origin: 232.853px 36.1299px;" id="el6m11o55sghb" class="animable"></path><path d="M232.87,38.06c-.2-.2,2.85-3.44,6.52-7.5s6.63-7.38,6.84-7.21-2.41,3.79-6.12,7.87S233.05,38.25,232.87,38.06Z" style="fill: rgb(224, 224, 224); transform-origin: 239.551px 30.7062px;" id="ely1m7iggolr" class="animable"></path><path d="M318.07,154.85c-.05-.27,8.29-2,18.63-3.92s18.76-3.23,18.81-3-8.29,2-18.63,3.93S318.12,155.11,318.07,154.85Z" style="fill: rgb(224, 224, 224); transform-origin: 336.79px 151.393px;" id="elmmq9t8g0ko8" class="animable"></path><path d="M364.13,206.4c.57-4.15-5.29-7.57-9.7-7.92-2.1-.17-4.28.15-6.27-.54-4.31-1.51-6-7.07-10.24-8.85-3.14-1.33-6.76-.14-9.81,1.39s-6.06,3.46-9.47,3.68c-3,.19-6.18-.91-8.77.54-1.93,1.08-2.94,3.31-4.72,4.62s-4,1.55-6.18,1.67-4.4.14-6.36,1-3.6,3-3.19,5.11Z" style="fill: rgb(235, 235, 235); transform-origin: 326.763px 197.807px;" id="elcv72oapy7c8" class="animable"></path><path d="M223,90.91c.58-4.15-5.29-7.57-9.69-7.92-2.1-.17-4.28.15-6.27-.54-4.31-1.51-6-7.08-10.24-8.85-3.14-1.33-6.76-.15-9.81,1.39s-6.06,3.46-9.47,3.68c-3,.19-6.18-.91-8.77.54-1.93,1.08-2.94,3.3-4.73,4.62s-4,1.55-6.17,1.67-4.4.14-6.37,1-3.59,3-3.18,5.11Z" style="fill: rgb(235, 235, 235); transform-origin: 185.638px 82.3163px;" id="elwu4wkqt4g2d" class="animable"></path><path d="M70.28,398.79c6.94,10.54,22.33,9.38,34.52,12.66,13.51,3.64,24.19,13.64,35.45,21.95,46.49,34.31,111.77,41.2,164.39,17.36,26.19-11.86,50.22-30.92,78.86-33.42,12.94-1.13,26.23,1.25,38.83-1.9,19.33-4.82,34.19-23.7,34.36-43.62Z" style="fill: rgb(245, 245, 245); transform-origin: 263.485px 418.325px;" id="elnthf8aegcx" class="animable"></path></g><g id="freepik--Floor--inject-48" class="animable" style="transform-origin: 255.905px 389.995px;"><path d="M491,390c0,.14-105.26.26-235.07.26S20.81,390.15,20.81,390s105.23-.27,235.08-.27S491,389.86,491,390Z" style="fill: rgb(38, 50, 56); transform-origin: 255.905px 389.995px;" id="elypasogke3up" class="animable"></path></g><g id="freepik--Bats--inject-48" class="animable" style="transform-origin: 231.58px 168.815px;"><path d="M36.59,167.33l39-14.39s7,17.45,27.82,11.47c0,0-.83-13.7,1.8-11.27s6.59,9.09,6.59,9.09l3.59-.43s-3.93-13.19-1.68-13.09,7.62,10.52,7.62,10.52,20.86-9.49,15.22-29.24l36.33-15.07s-16.83,20.44-6.49,40.69c0,0-33-9-22.95,21,0,0-25.33-5.05-16,24.59,0,0-10.31-26.77-28.09-8.25,0,0-9.58-28.17-31.15-1.7C68.21,191.22,68,170.58,36.59,167.33Z" style="fill: rgb(38, 50, 56); transform-origin: 104.735px 158.06px;" id="el1q13c4ur3py" class="animable"></path><path d="M352.61,166.55l20.88,12.92s-5.57,9.61,4.78,17.12c0,0,6.08-5.37,5.9-3.26a33.26,33.26,0,0,1-1.83,6.38l1.5,1.51s4.71-6.63,5.48-5.54-2.12,7.37-2.12,7.37,12,6.26,19.14-3.55l20.23,11.43s-15.63-.4-21.3,11.78c0,0-7.79-18.65-18.1-3.06,0,0-6.87-13.63-17.27,1.5,0,0,8.72-14.53-6.37-16.07,0,0,9.62-14.71-10.54-15.12C353,190,362.52,182.35,352.61,166.55Z" style="fill: rgb(38, 50, 56); transform-origin: 389.59px 194.63px;" id="elpqhf4mdnqb7" class="animable"></path></g><g id="freepik--pumpkin-3--inject-48" class="animable" style="transform-origin: 82.1696px 345.648px;"><path d="M77.9,313.7s-5.48-12.52-23.3-6.24S24.65,323.55,24,345.19c0,0-4.61,28.8,17.32,40.24,0,0,12.41,24.06,43.9,11.25,0,0,16.39,5.27,30.24-9.73,0,0,21.21-8.63,24.55-35.47,2.93-23.56-3.87-32.51-3.87-32.51S128,304.7,113,303.75,77.9,313.7,77.9,313.7Z" style="fill: #F17313; transform-origin: 82.1696px 352.064px;" id="elvknqrbxwajp" class="animable"></path><g id="el5qyrfdfq59r"><g style="opacity: 0.3; transform-origin: 86.23px 317.905px;" class="animable" id="elu94mxwf937i"><path d="M83.29,328.64c1.93,0,3.47-1.76,4.07-3.6A25.46,25.46,0,0,0,88,319.3a20.87,20.87,0,0,1,5.38-12.13l-7,2.59-7.3,12.57Z" id="elzew06jq434e" class="animable" style="transform-origin: 86.23px 317.905px;"></path></g></g><path d="M75.94,326.34s-1.46-8.26,2.39-21.15,6.53-14.33,6.53-14.33L88.22,295s-5.58,8.53-4.76,16,2.09,13.28,2.09,13.28-.23,6.37-5,4.65S75.94,326.34,75.94,326.34Z" style="fill: rgb(150, 93, 71); transform-origin: 81.9442px 310.042px;" id="el0ibwcv0oda54" class="animable"></path><path d="M76.13,326.85a6.07,6.07,0,0,1-.63-.26l-1.77-.83c-1.53-.71-3.74-1.79-6.53-2.95a46.93,46.93,0,0,0-10.11-3.1,25.69,25.69,0,0,0-12.74.85,28.81,28.81,0,0,0-10.67,7.09,36.55,36.55,0,0,0-6.4,8.39,28.08,28.08,0,0,0-2.68,6.6c-.44,1.63-.56,2.56-.62,2.55a2.7,2.7,0,0,1,.07-.68,17.83,17.83,0,0,1,.35-1.92A27.3,27.3,0,0,1,27,335.86a35.93,35.93,0,0,1,6.39-8.55,40,40,0,0,1,4.8-4.11,24,24,0,0,1,6-3.14,26,26,0,0,1,13-.83,46.69,46.69,0,0,1,10.17,3.24c2.79,1.21,5,2.34,6.48,3.11l1.73.92A2.66,2.66,0,0,1,76.13,326.85Z" style="fill: rgb(38, 50, 56); transform-origin: 50.0546px 331.977px;" id="elrcw2osxiho" class="animable"></path><path d="M73.6,327.16a3.47,3.47,0,0,1-.69.22c-.47.11-1.14.29-2,.58a30.18,30.18,0,0,0-6.84,3.36,37.85,37.85,0,0,0-4.16,3.22,43.64,43.64,0,0,0-4.21,4.34,49,49,0,0,0-7.3,11.74,76.9,76.9,0,0,0-4.31,13.19,103.32,103.32,0,0,0-2,11.18c-.39,3.21-.55,5.82-.65,7.63,0,.87-.07,1.56-.09,2.09a7,7,0,0,1-.06.72,3.18,3.18,0,0,1,0-.73c0-.47,0-1.18,0-2.08,0-1.82.15-4.45.49-7.68a96,96,0,0,1,1.9-11.24,75.09,75.09,0,0,1,4.29-13.29c4-9.14,10.44-16,15.95-19.4a28.33,28.33,0,0,1,7-3.24,16,16,0,0,1,2-.5A4.81,4.81,0,0,1,73.6,327.16Z" style="fill: rgb(38, 50, 56); transform-origin: 57.4345px 356.295px;" id="elt6p6g5dvja" class="animable"></path><path d="M85.2,396.68a3.61,3.61,0,0,1,.19-.71c.13-.45.38-1.11.62-2,.52-1.73,1.17-4.26,1.81-7.42a131.32,131.32,0,0,0,2.44-25.05c0-2.46-.11-4.86-.37-7.16s-.6-4.52-1-6.61c-.8-4.19-1.7-7.94-2.44-11.08s-1.87-5.57-3.34-6.64a6.2,6.2,0,0,0-2.52-1.09.69.69,0,0,1,.19,0c.12,0,.31,0,.54.06a4.92,4.92,0,0,1,1.92.86c1.56,1.07,2.76,3.59,3.57,6.71s1.72,6.87,2.55,11.08c.41,2.1.78,4.32,1,6.64s.34,4.74.38,7.22a122.83,122.83,0,0,1-2.6,25.13,69,69,0,0,1-2,7.4c-.27.87-.55,1.51-.71,2A7.25,7.25,0,0,1,85.2,396.68Z" style="fill: rgb(38, 50, 56); transform-origin: 85.665px 362.797px;" id="elvd0do5f85g9" class="animable"></path><path d="M118.44,379.47a3.77,3.77,0,0,1,0-.74c0-.54.1-1.24.17-2.12.07-1.83.24-4.5.08-7.78a68.73,68.73,0,0,0-1.44-11.44,55,55,0,0,0-4.63-13.28,38.51,38.51,0,0,0-3.9-6.15,31.45,31.45,0,0,0-4.75-4.82,23.24,23.24,0,0,0-10.26-4.85,20.39,20.39,0,0,0-7.7,0,16.62,16.62,0,0,0-2,.5,3.45,3.45,0,0,1-.73.17,4.22,4.22,0,0,1,.69-.27,13.87,13.87,0,0,1,2-.6,19.89,19.89,0,0,1,7.8-.21,23.27,23.27,0,0,1,10.5,4.84,31.92,31.92,0,0,1,4.85,4.87,39.3,39.3,0,0,1,4,6.23,54.16,54.16,0,0,1,4.64,13.42,65.82,65.82,0,0,1,1.34,11.53,67.35,67.35,0,0,1-.25,7.81c-.11.88-.2,1.58-.27,2.11A4.88,4.88,0,0,1,118.44,379.47Z" style="fill: rgb(38, 50, 56); transform-origin: 101.201px 353.531px;" id="elptkwbovf837" class="animable"></path><path d="M126,313.26a15.33,15.33,0,0,1-1.62-.86,27.89,27.89,0,0,0-4.57-1.95,25.14,25.14,0,0,0-7.23-1.25,25.54,25.54,0,0,0-8.84,1.42,38.19,38.19,0,0,0-8.19,3.75,31.09,31.09,0,0,0-5.7,4.65,44,44,0,0,0-3.21,3.81l-.8,1.09a2,2,0,0,1-.31.37s.06-.16.22-.43.44-.69.72-1.15a36.59,36.59,0,0,1,3.11-3.95A30.12,30.12,0,0,1,95.31,314a36.85,36.85,0,0,1,8.29-3.84,25.26,25.26,0,0,1,9-1.41,24.87,24.87,0,0,1,11.88,3.51c.51.29.88.57,1.14.74A2,2,0,0,1,126,313.26Z" style="fill: rgb(38, 50, 56); transform-origin: 105.765px 316.516px;" id="el1ew1v4txo3k" class="animable"></path></g><g id="freepik--pumpkin-2--inject-48" class="animable" style="transform-origin: 410.046px 357.264px;"><path d="M405.4,328.92s-6.9-11.7-30.82-8.29-40.35,10.63-41.92,29.66c0,0-7,24.88,21.79,37.6,0,0,15.77,22.73,58.06,15.17,0,0,21.65,6.62,40.54-5,0,0,28.51-5.09,33.78-28.39,4.63-20.46-4.13-29.17-4.13-29.17a48.11,48.11,0,0,0-30.24-16.19C432.63,321.72,405.4,328.92,405.4,328.92Z" style="fill: #F17313; transform-origin: 410.046px 362.472px;" id="elumqjdp7o2gn" class="animable"></path><path d="M402.39,339.85s-1.69-7.47,3.85-18.39,9.13-11.87,9.13-11.87l4.34,4s-7.69,6.86-6.84,13.59a88.72,88.72,0,0,0,2.37,12s-.5,5.61-6.72,3.53S402.39,339.85,402.39,339.85Z" style="fill: rgb(150, 93, 71); transform-origin: 410.929px 326.381px;" id="elx8df0rzke6o" class="animable"></path><path d="M402.63,340.32a4.15,4.15,0,0,1-.75-.26l-2.11-.85c-1.83-.74-4.48-1.83-7.78-3.08a103.83,103.83,0,0,0-11.8-3.75,56.9,56.9,0,0,0-15-1.76,37.46,37.46,0,0,0-14.66,3.2,30.43,30.43,0,0,0-9.88,7.23,25.84,25.84,0,0,0-4.47,7,22.35,22.35,0,0,0-.78,2.13,4.32,4.32,0,0,1-.28.74,7,7,0,0,1,.18-.77A16.57,16.57,0,0,1,336,348a24.44,24.44,0,0,1,4.38-7.14,30.32,30.32,0,0,1,9.95-7.43,37.51,37.51,0,0,1,14.85-3.28,56.33,56.33,0,0,1,15.12,1.81,100.23,100.23,0,0,1,11.82,3.87c3.29,1.3,5.92,2.45,7.73,3.24l2.07.94A4.62,4.62,0,0,1,402.63,340.32Z" style="fill: rgb(38, 50, 56); transform-origin: 368.875px 340.531px;" id="ele5ihu10ul7l" class="animable"></path><path d="M399.26,340.3a3.9,3.9,0,0,1-.73.1c-.48.06-1.19.07-2.09.21a47.41,47.41,0,0,0-7.56,1.49,48.79,48.79,0,0,0-10.53,4.36,45.92,45.92,0,0,0-11,8.56,44.35,44.35,0,0,0-7.57,11.67,58.74,58.74,0,0,0-3.73,10.79,56.4,56.4,0,0,0-1.34,7.59c-.13.91-.14,1.62-.2,2.09a4.74,4.74,0,0,1-.09.73,3.14,3.14,0,0,1,0-.73c0-.48,0-1.2.1-2.11a51.6,51.6,0,0,1,1.19-7.66,57.06,57.06,0,0,1,3.65-10.9A44.06,44.06,0,0,1,367,354.67,45.42,45.42,0,0,1,378.12,346a47.83,47.83,0,0,1,10.66-4.3,42.09,42.09,0,0,1,7.64-1.33c.91-.11,1.62-.09,2.1-.12A3.77,3.77,0,0,1,399.26,340.3Z" style="fill: rgb(38, 50, 56); transform-origin: 376.829px 364.069px;" id="el56k3mradbnf" class="animable"></path><path d="M412.51,403.06a3.18,3.18,0,0,1,.3-.6c.2-.4.56-.94.91-1.7a51.73,51.73,0,0,0,2.74-6.52,74.74,74.74,0,0,0,2.67-10.15,68.26,68.26,0,0,0,1.31-12.77,45.09,45.09,0,0,0-1.83-12.66c-.51-1.91-1.05-3.71-1.56-5.4a46.37,46.37,0,0,0-1.55-4.63,11,11,0,0,0-2.11-3.36,7.6,7.6,0,0,0-2.42-1.75,17.85,17.85,0,0,0-2.45-.81,7.41,7.41,0,0,1,2.53.62,7.68,7.68,0,0,1,2.55,1.73,11.34,11.34,0,0,1,2.24,3.42,48.17,48.17,0,0,1,1.62,4.65c.53,1.68,1.09,3.49,1.61,5.4A44.64,44.64,0,0,1,421,371.32a66.4,66.4,0,0,1-1.36,12.86,69.3,69.3,0,0,1-2.8,10.18,45.15,45.15,0,0,1-2.9,6.5,17.64,17.64,0,0,1-1,1.65A3.57,3.57,0,0,1,412.51,403.06Z" style="fill: rgb(38, 50, 56); transform-origin: 414.76px 372.885px;" id="eld0yfpjr05gq" class="animable"></path><path d="M457.28,391.84a4.59,4.59,0,0,1,.1-.79c.06-.52.25-1.26.34-2.25a39.76,39.76,0,0,0,.22-8.32,40.55,40.55,0,0,0-2.7-12,39,39,0,0,0-20.05-21.61A43.43,43.43,0,0,0,429,344.5a42.42,42.42,0,0,0-5.61-1.23,40.16,40.16,0,0,0-8.32-.4c-1,0-1.74.15-2.26.17a3.71,3.71,0,0,1-.8,0,7.54,7.54,0,0,1,.78-.14c.52-.06,1.28-.22,2.27-.28a38.69,38.69,0,0,1,8.38.24,40.7,40.7,0,0,1,11.93,3.52,39,39,0,0,1,20.29,21.88,43.37,43.37,0,0,1,1.87,6.4,42.88,42.88,0,0,1,.75,5.75,37.58,37.58,0,0,1-.39,8.38c-.12,1-.34,1.73-.44,2.24A5.12,5.12,0,0,1,457.28,391.84Z" style="fill: rgb(38, 50, 56); transform-origin: 435.185px 367.168px;" id="eltmojqdhrkw" class="animable"></path><path d="M469.44,334.28a1.9,1.9,0,0,1-.55-.21c-.35-.15-.85-.42-1.52-.7a52.48,52.48,0,0,0-5.75-2.18,50,50,0,0,0-20-2.07,69.84,69.84,0,0,0-11,2,40.52,40.52,0,0,0-8.44,3.34A39.3,39.3,0,0,0,417,337.8a21.51,21.51,0,0,1-1.79,1.38,3.35,3.35,0,0,1,.41-.42c.28-.25.68-.66,1.25-1.11a33.91,33.91,0,0,1,5.1-3.52,38.71,38.71,0,0,1,8.5-3.48,67.07,67.07,0,0,1,11.05-2,48.25,48.25,0,0,1,20.18,2.24,44.59,44.59,0,0,1,5.72,2.34c.66.32,1.15.61,1.49.79A3.36,3.36,0,0,1,469.44,334.28Z" style="fill: rgb(38, 50, 56); transform-origin: 442.325px 333.791px;" id="eljx042ehc4d9" class="animable"></path><g id="elm9nxkf2pend"><path d="M359.3,392.85s17.27-25.08,21-45.54S382.2,320,382.2,320l-14.53,1.75-18,63.73,4.78,2.39Z" style="opacity: 0.3; transform-origin: 366.159px 356.425px;" class="animable" id="elpw3n3vf0yy"></path></g></g><g id="freepik--pumpkin-1--inject-48" class="animable" style="transform-origin: 245.902px 319.059px;"><path d="M142.19,421.3c-2.09.94-3.68,1.45-6.79-1-1.79-1.43-3.17-4.75-4-6.88a56.9,56.9,0,0,1-3.24,6.17,62.94,62.94,0,0,1-4.82,6.85c-3.48,4.4-5.79,4.2-8.79,4s-5.76-3.34-4.79-6.2a54.57,54.57,0,0,1-21.31,5c-2.16.06-4.65-.18-5.85-2s-.48-4.19.35-6.17A85.58,85.58,0,0,1,93.1,403.19c-2.87-.9-6.36-2.65-6.12-5.66a11.87,11.87,0,0,1,3.08-6.95c4.51-4.07,9.74-6.79,18.37-6.87a5.36,5.36,0,0,1-3.8-9.54c1.58-1.27,3.74-1.54,5.77-1.63,10-.43,24.72,6.93,33.1,12.41h0c3.1,10.36,5.13,17.25,2.61,28.77C145.59,416.09,144.4,420.31,142.19,421.3Z" style="fill: rgb(69, 90, 100); transform-origin: 114.605px 401.523px;" id="el9gktw9w7hmk" class="animable"></path><path d="M187.38,383.47a1.5,1.5,0,0,1-.31-.2l-.85-.63a21.69,21.69,0,0,0-3.53-2,25,25,0,0,0-14.62-1.33,30.78,30.78,0,0,0-4.76,1.3,31.46,31.46,0,0,0-4.83,2.28,21.68,21.68,0,0,0-4.52,3.45,13.57,13.57,0,0,0-3.23,5,10.73,10.73,0,0,0-.38,6.18,7.7,7.7,0,0,0,3.85,5,6.58,6.58,0,0,0,6.39.18,7.06,7.06,0,0,0,3.28-5.75,8.25,8.25,0,0,0-2.46-6.26,12.27,12.27,0,0,0-5.86-3.29,18.45,18.45,0,0,0-6.57-.33,36.39,36.39,0,0,0-6.24,1.33,75.09,75.09,0,0,0-20,9.46c-5.31,3.43-9.38,6.55-12.21,8.67L107.32,409l-.85.63a2.29,2.29,0,0,1-.3.2s.08-.09.26-.24l.82-.68,3.19-2.53c2.8-2.17,6.84-5.33,12.14-8.82a74.74,74.74,0,0,1,20-9.62,36.51,36.51,0,0,1,6.32-1.35,19,19,0,0,1,6.75.32,12.77,12.77,0,0,1,6.1,3.43,9.56,9.56,0,0,1,2,3,8.37,8.37,0,0,1,.6,3.64,7.55,7.55,0,0,1-3.55,6.16,6.15,6.15,0,0,1-3.5.8,7.83,7.83,0,0,1-3.39-1,8.15,8.15,0,0,1-4.08-5.32,11.24,11.24,0,0,1,.41-6.46,14.05,14.05,0,0,1,3.35-5.18,22,22,0,0,1,4.63-3.5,31.8,31.8,0,0,1,4.91-2.29A30.92,30.92,0,0,1,168,379a24.89,24.89,0,0,1,14.77,1.51,19.32,19.32,0,0,1,3.51,2.09l.83.67A2.27,2.27,0,0,1,187.38,383.47Z" style="fill: rgb(38, 50, 56); transform-origin: 146.775px 394.165px;" id="elwlijembo2q" class="animable"></path><path d="M350.19,276.71c2-1.13,3.53-1.79,6.86.41,1.91,1.25,3.59,4.43,4.64,6.47a57.56,57.56,0,0,1,2.65-6.45,63.77,63.77,0,0,1,4.16-7.27c3.06-4.7,5.37-4.72,8.38-4.77s6.05,2.79,5.35,5.72a54.61,54.61,0,0,1,20.75-7c2.14-.27,4.65-.25,6,1.41s.86,4.13.22,6.18a85.18,85.18,0,0,1-8.46,18.71c2.95.63,6.58,2,6.63,5.06a11.94,11.94,0,0,1-2.42,7.21c-4.11,4.47-9.07,7.67-17.65,8.55a5.37,5.37,0,0,1,4.68,9.15c-1.46,1.41-3.58,1.88-5.6,2.16-9.91,1.37-25.25-4.59-34.11-9.26h0c-4.06-10-6.72-16.7-5.29-28.4C347.29,282.22,348.08,277.91,350.19,276.71Z" style="fill: rgb(69, 90, 100); transform-origin: 378.214px 293.07px;" id="elag3sclup5xq" class="animable"></path><path d="M356.16,316.28a2.54,2.54,0,0,1,.28-.58l.89-1.62a63.48,63.48,0,0,1,3.8-5.65,145.78,145.78,0,0,1,15-16.71,170.81,170.81,0,0,1,17.07-14.59c2.31-1.7,4.26-3,5.63-3.82l1.6-.94a2.26,2.26,0,0,1,.57-.29,3,3,0,0,1-.52.38l-1.54,1c-1.33.89-3.24,2.21-5.52,3.95a192.13,192.13,0,0,0-16.92,14.66,160.63,160.63,0,0,0-15.05,16.56c-1.76,2.27-3.06,4.19-3.93,5.53l-1,1.57A3.34,3.34,0,0,1,356.16,316.28Z" style="fill: rgb(38, 50, 56); transform-origin: 378.58px 294.18px;" id="elt7be7rtz6k" class="animable"></path><path d="M374.61,294.14a11.62,11.62,0,0,1,2.85-.43,35.53,35.53,0,0,1,13.74,1.61,11.45,11.45,0,0,1,2.66,1.09,27.55,27.55,0,0,1-2.77-.74,46,46,0,0,0-13.61-1.6A22.34,22.34,0,0,1,374.61,294.14Z" style="fill: rgb(38, 50, 56); transform-origin: 384.235px 295.004px;" id="elx07gchmdxvo" class="animable"></path><path d="M360.24,309.94a9.72,9.72,0,0,1-.77-2.4,52.71,52.71,0,0,1-1.15-6,53.52,53.52,0,0,1-.47-6A10.29,10.29,0,0,1,358,293a13.74,13.74,0,0,1,.26,2.49c.12,1.54.31,3.67.63,6s.69,4.43,1,5.94A15.07,15.07,0,0,1,360.24,309.94Z" style="fill: rgb(38, 50, 56); transform-origin: 359.034px 301.47px;" id="elmlnqp7cmm" class="animable"></path><path d="M375.25,250.13a7.53,7.53,0,0,0-1,.37,4.63,4.63,0,0,0-2,2,4.73,4.73,0,0,0,0,4.39,6.2,6.2,0,0,0,4.8,3.24,8.65,8.65,0,0,0,6.71-2.37,10.59,10.59,0,0,0,3.31-7.52,10.44,10.44,0,0,0-8.41-10.06,10.79,10.79,0,0,0-5,.29,17.32,17.32,0,0,0-8.15,5.69,19.79,19.79,0,0,0-4.17,8.34,46.81,46.81,0,0,0-1.16,8.48c-.17,2.69-.14,5.2-.09,7.5.13,4.58.43,8.29.63,10.84.09,1.25.17,2.24.22,2.95,0,.32,0,.57,0,.77a.92.92,0,0,1,0,.27,1.44,1.44,0,0,1-.05-.26c0-.2-.06-.46-.1-.77-.07-.71-.18-1.69-.32-2.94-.25-2.55-.61-6.26-.79-10.85-.07-2.3-.12-4.82,0-7.53a47.24,47.24,0,0,1,1.12-8.58,20.2,20.2,0,0,1,4.25-8.55,17.81,17.81,0,0,1,8.39-5.86,11.27,11.27,0,0,1,5.25-.3,10.67,10.67,0,0,1,4.65,2.14,10.56,10.56,0,0,1,4.15,8.44,11,11,0,0,1-3.5,7.83,9,9,0,0,1-7,2.42,6.48,6.48,0,0,1-5-3.48,5.14,5.14,0,0,1-.53-2.53,5,5,0,0,1,.61-2.08,4.67,4.67,0,0,1,2.14-2A2.84,2.84,0,0,1,375.25,250.13Z" style="fill: rgb(38, 50, 56); transform-origin: 373.549px 262.401px;" id="el7nc8ywyvnna" class="animable"></path><path d="M219.13,204.37a14.13,14.13,0,0,0-.4,2.9,10,10,0,0,0,.54,3.35,9.69,9.69,0,0,0,2.37,3.78,9.73,9.73,0,0,0,10.82,1.74,9.85,9.85,0,0,0,4.6-4.91,8.38,8.38,0,0,0-.06-7.09,5.29,5.29,0,0,0-2.64-2.41,4,4,0,0,0-3.4.16,5.55,5.55,0,0,0-2.36,2.41,7.15,7.15,0,0,0-.73,3.22,16.24,16.24,0,0,0,4.49,10.57,12,12,0,0,0,7,3.51,14.49,14.49,0,0,0,2.93,0l-.19,0a4.59,4.59,0,0,1-.56.11,9.73,9.73,0,0,1-2.2.06,11.93,11.93,0,0,1-7.2-3.45,16.52,16.52,0,0,1-4.71-10.83,7.49,7.49,0,0,1,.76-3.44,6.11,6.11,0,0,1,2.58-2.65,4.59,4.59,0,0,1,3.82-.18,5.73,5.73,0,0,1,2.91,2.65,8.83,8.83,0,0,1,.07,7.53,10.31,10.31,0,0,1-4.85,5.14,10,10,0,0,1-6.37.72,9.85,9.85,0,0,1-4.93-2.63,9.64,9.64,0,0,1-2.38-3.95,10.14,10.14,0,0,1-.48-3.45,9.64,9.64,0,0,1,.34-2.17A5.34,5.34,0,0,1,219.13,204.37Z" style="fill: rgb(38, 50, 56); transform-origin: 230.422px 211.347px;" id="elykc7rhis1sn" class="animable"></path><path d="M264.31,234.7c-6.07-3.87-9.81-12.52-8.06-19.7s7.49-13.55,14.87-13.15a16.5,16.5,0,0,1,15,13.89l6.17-2.13a26.91,26.91,0,0,0-41.58-13.86c-5.27,3.85-9,9.53-11.45,15.58s-3.71,12.5-4.83,18.93c0,0,5.51,9.67,13.46,9.45S264.31,234.7,264.31,234.7Z" style="fill: rgb(150, 93, 71); transform-origin: 263.36px 219.15px;" id="el35aeyqyahb9" class="animable"></path><path d="M363.6,282.3c-23.33-39.58-70.9-68.45-104.42-48.84,0,0-10.55,8.9-18,3.22l-2.71-2.19c-2.12-1.75-6.53-13.62-34.7-7.87s-66.13,27-79.94,64.4-13,114,48.23,130.73c0,0,26,27.56,64.63,12.65,0,0,43,27.41,70.58-14,0,0,20.43-2.41,40.83-25.88C367.07,372.75,389.65,326.49,363.6,282.3Z" style="fill: #F17313; transform-origin: 245.973px 334.178px;" id="eligy41qtwumq" class="animable"></path><path d="M363.6,282.3s.53.9,1.53,2.68c.25.45.52.95.83,1.5l.92,1.86q.5,1,1.08,2.19l1.1,2.57A81.06,81.06,0,0,1,373.51,307a83.75,83.75,0,0,1,2,19.67,96,96,0,0,1-3.67,24.3,118.62,118.62,0,0,1-20.49,40c-1.69,2.2-3.57,4.29-5.51,6.38l-1.46,1.58-1.55,1.51c-1,1-2.05,2.05-3.18,3A80.54,80.54,0,0,1,325,414a65.55,65.55,0,0,1-8.45,4,45.21,45.21,0,0,1-9.22,2.64l.15-.09a57.36,57.36,0,0,1-12.7,13.86c-1.24,1-2.64,1.87-4,2.79-.71.42-1.43.8-2.15,1.2a22.81,22.81,0,0,1-2.21,1.11,46.52,46.52,0,0,1-4.63,1.85,47.22,47.22,0,0,1-4.88,1.27,50.5,50.5,0,0,1-20.51-.31,66.49,66.49,0,0,1-10.14-3,62.49,62.49,0,0,1-9.69-4.67l.22,0a66.78,66.78,0,0,1-16.37,4.07c-1.42.18-2.85.24-4.28.33s-2.88.08-4.32,0a54.9,54.9,0,0,1-8.64-.95,60.93,60.93,0,0,1-16.65-5.75,59.78,59.78,0,0,1-14.63-10.39l.11.07-3.77-1.18-1.89-.6-1.85-.73c-1.22-.51-2.48-1-3.69-1.51l-3.61-1.76a70.36,70.36,0,0,1-13.38-9.13,74.26,74.26,0,0,1-19-26.89,111.2,111.2,0,0,1-8.2-36.06,142,142,0,0,1,2.27-36,114.4,114.4,0,0,1,4.63-17c.53-1.35,1.12-2.69,1.67-4l.85-2,.42-1,.5-1,2-3.83c.34-.63.65-1.28,1-1.89l1.15-1.82a100.68,100.68,0,0,1,22.2-25c17.11-13.68,36.91-22.37,56.38-25.17a47.25,47.25,0,0,1,14.49,0,27.27,27.27,0,0,1,6.77,2.15,18.47,18.47,0,0,1,5.51,4.27c.78.84,1.41,1.86,2.19,2.58l2.63,2.12a9.13,9.13,0,0,0,6.13,1.84,16.83,16.83,0,0,0,6.2-1.69,26.76,26.76,0,0,0,5.39-3.35h0A47.52,47.52,0,0,1,286,227.07a63.86,63.86,0,0,1,12.67,2c2,.5,4,1.16,5.87,1.78s3.74,1.38,5.51,2.19,3.5,1.62,5.19,2.43,3.3,1.72,4.84,2.67l2.31,1.37,2.21,1.43c1.48.91,2.84,1.93,4.22,2.88a122.58,122.58,0,0,1,13.92,11.73,124,124,0,0,1,9.81,10.74c2.69,3.25,4.75,6.17,6.41,8.53s2.8,4.24,3.54,5.52,1.15,1.92,1.15,1.92-.41-.64-1.19-1.89-2-3.1-3.59-5.49-3.75-5.25-6.45-8.48a123.21,123.21,0,0,0-9.83-10.69,120.75,120.75,0,0,0-13.93-11.68c-1.37-.94-2.73-1.95-4.21-2.87l-2.2-1.41-2.31-1.36c-1.54-1-3.19-1.76-4.83-2.65s-3.38-1.69-5.18-2.42-3.62-1.46-5.49-2.17-3.84-1.27-5.85-1.76a63.25,63.25,0,0,0-12.61-2,47.11,47.11,0,0,0-26.65,6.2h0a27.89,27.89,0,0,1-5.47,3.41,17.24,17.24,0,0,1-6.35,1.73,9.48,9.48,0,0,1-6.4-1.92l-2.64-2.12c-.89-.82-1.46-1.79-2.25-2.62a17.62,17.62,0,0,0-5.38-4.17,26.59,26.59,0,0,0-6.65-2.11,47,47,0,0,0-14.36,0c-19.37,2.79-39.1,11.48-56.14,25.11a100,100,0,0,0-22.07,24.92l-1.14,1.81c-.37.61-.68,1.26-1,1.89-.67,1.26-1.33,2.53-2,3.8l-.5,1-.42,1-.83,2c-.55,1.33-1.13,2.66-1.67,4a113.86,113.86,0,0,0-4.6,16.93,141.89,141.89,0,0,0-2.25,35.83A110.88,110.88,0,0,0,125.34,380a73.77,73.77,0,0,0,18.84,26.7,69.76,69.76,0,0,0,13.28,9.06L161,417.5c1.2.55,2.45,1,3.67,1.5l1.83.73,1.88.59,3.75,1.18.07,0,0,.05a62,62,0,0,0,31,16,52.89,52.89,0,0,0,8.57.95c1.43.09,2.86,0,4.28,0s2.84-.15,4.24-.33a66.42,66.42,0,0,0,16.26-4l.11,0,.11.06a61.42,61.42,0,0,0,9.6,4.63,67.46,67.46,0,0,0,10.06,3,50.1,50.1,0,0,0,20.32.31,46.19,46.19,0,0,0,4.83-1.24,45.58,45.58,0,0,0,4.58-1.84,20.29,20.29,0,0,0,2.19-1.09c.7-.4,1.42-.77,2.12-1.19a48.06,48.06,0,0,0,4-2.75,57.32,57.32,0,0,0,12.61-13.75l.06-.08.1,0a45.78,45.78,0,0,0,9.12-2.6,65.38,65.38,0,0,0,8.4-4,81,81,0,0,0,14.55-10.46c1.13-.94,2.13-2,3.17-3l1.54-1.5,1.46-1.57c1.94-2.08,3.81-4.16,5.49-6.35a118.24,118.24,0,0,0,20.5-39.87,96,96,0,0,0,3.71-24.23,84.16,84.16,0,0,0-1.9-19.62,81.66,81.66,0,0,0-4.39-13.87l-1.09-2.57c-.38-.78-.73-1.52-1.06-2.19s-.63-1.3-.9-1.87l-.82-1.51C364.09,283.23,363.6,282.3,363.6,282.3Z" style="fill: rgb(38, 50, 56); transform-origin: 245.924px 334.217px;" id="elqr0coxaksme" class="animable"></path><g id="elwpcgizfo3e"><g style="opacity: 0.1; transform-origin: 247.44px 268.928px;" class="animable" id="elyqbhjozp7mf"><path d="M338.19,258.54c-.07.17-.33.25-.75.27s-1,0-1.75-.08a29.78,29.78,0,0,0-6.26.1,24.45,24.45,0,0,0-4.24,1,20.2,20.2,0,0,0-4.52,2.24,19.55,19.55,0,0,0-2.15,1.68,20.05,20.05,0,0,0-2,2.15c-1.36,1.63-2.73,3.72-4.83,5.93a17.33,17.33,0,0,1-3.94,3.14,14.06,14.06,0,0,1-5.45,1.77,20.62,20.62,0,0,1-10.77-2.15,38.7,38.7,0,0,1-4.6-2.56l-4-2.68a22.24,22.24,0,0,0-7.41-3.53,10.54,10.54,0,0,0-7,1.18,19.51,19.51,0,0,0-3.66,2.43,38.11,38.11,0,0,0-3.6,3.34q-1.77,1.84-3.53,4c-1.16,1.37-2.37,2.91-3.79,4.5a36.14,36.14,0,0,1-4.95,4.7,24,24,0,0,1-3.17,2.05,18.71,18.71,0,0,1-3.77,1.52,16.91,16.91,0,0,1-8.45.3,13.82,13.82,0,0,1-4.28-1.77,14,14,0,0,1-3.39-3,22.44,22.44,0,0,1-3.59-6.46c-.76-2-1.32-3.69-1.93-5.1a12.75,12.75,0,0,0-2.09-3.41,13,13,0,0,0-3-2.62,20.93,20.93,0,0,0-7.93-2.93c-5.64-.94-11.51.36-17,2.15-2.76.9-5.45,1.93-8.09,2.95l-3.9,1.51c-1.29.5-2.67,1-4.07,1.41a22.86,22.86,0,0,1-4.43.87,13.73,13.73,0,0,1-4.75-.35,11,11,0,0,1-4.26-2.17,11.23,11.23,0,0,1-2.72-3.38,14.6,14.6,0,0,1-.27-12.34,22.54,22.54,0,0,1,3.72-6c1-1.2,1.74-1.72,2.05-1.55s.22,1.06-.21,2.55a62.75,62.75,0,0,0-1.68,6.2,13.79,13.79,0,0,0-.15,4.12,9.14,9.14,0,0,0,1.55,4.09,4.82,4.82,0,0,0,3.39,2.05,11.38,11.38,0,0,0,5.42-1c2.07-.82,4.54-2.1,7.13-3.32s5.33-2.51,8.33-3.7a58.06,58.06,0,0,1,9.8-3,41.47,41.47,0,0,1,5.56-.74,36.7,36.7,0,0,1,5.91.2,30,30,0,0,1,11.88,4,22.77,22.77,0,0,1,5.32,4.36,23.25,23.25,0,0,1,3.86,6c.91,2,1.54,3.9,2.18,5.46a13.27,13.27,0,0,0,1.94,3.59,3.86,3.86,0,0,0,1,.84,3.4,3.4,0,0,0,1.11.45,6.86,6.86,0,0,0,3.26-.18,8.71,8.71,0,0,0,1.73-.7,12.74,12.74,0,0,0,1.78-1.15,25.78,25.78,0,0,0,3.53-3.33c1.17-1.28,2.35-2.75,3.67-4.27s2.65-3,4.09-4.43a46.19,46.19,0,0,1,4.64-4.12,29.25,29.25,0,0,1,5.53-3.43,21.31,21.31,0,0,1,6.58-2,19.79,19.79,0,0,1,6.92.38,23,23,0,0,1,5.89,2.36,44.33,44.33,0,0,1,4.61,3l3.86,2.86a33.12,33.12,0,0,0,3.42,2.19,13.19,13.19,0,0,0,6.27,1.87,6.44,6.44,0,0,0,2.5-.57,10.18,10.18,0,0,0,2.44-1.63c1.65-1.42,3.24-3.34,5.08-5.13a24.13,24.13,0,0,1,3-2.53,23.85,23.85,0,0,1,3.18-1.88,22.47,22.47,0,0,1,11.52-2.23,17.2,17.2,0,0,1,7,2,6.27,6.27,0,0,1,1.54,1.1C338.15,258.14,338.27,258.38,338.19,258.54Z" style="fill: rgb(255, 255, 255); transform-origin: 247.44px 268.928px;" id="el5d1wvngz9nr" class="animable"></path></g></g><g id="el7pp7bdtlqj6"><g style="opacity: 0.3; transform-origin: 232.383px 366.913px;" class="animable" id="elv97u9xh1u88"><path d="M348.14,394.28c-20.4,23.47-40.83,25.87-40.83,25.87-27.6,41.41-70.58,14-70.58,14-38.62,14.91-64.63-12.65-64.63-12.65-61.2-16.75-62-93.34-48.23-130.72,0,0-11.12,56.57,4.67,88.2S167,408.17,167,408.17s12.79,21.89,37.27,24.44c26.27,2.74,31.06-6.78,31.06-6.78s25.44,17.64,42.93,12.52S312.68,408,312.68,408s-.83,7.37,13.53,1.14C336.22,404.83,348.14,394.28,348.14,394.28Z" id="el756prhmo0sk" class="animable" style="transform-origin: 232.383px 366.913px;"></path></g></g><path d="M238.51,234.85a5.51,5.51,0,0,1-.57.16l-1.68.42-2.73.66-3.7,1a111.91,111.91,0,0,0-22.6,9.15,93.22,93.22,0,0,0-14,9.36,84.22,84.22,0,0,0-13.51,13.78c-.54.66-1,1.35-1.55,2s-1,1.39-1.51,2.11c-.95,1.46-2,2.91-2.84,4.46a83.38,83.38,0,0,0-5,9.68,91.06,91.06,0,0,0-4,10.57A98.06,98.06,0,0,0,162,309.57c-.74,3.86-1.27,7.71-1.62,11.53s-.46,7.6-.67,11.3c-.35,7.43-.58,14.59-.6,21.41,0,13.65,1,25.95,3.16,36.05A160.25,160.25,0,0,0,169,413.35c1,2.73,1.81,4.8,2.34,6.22.27.7.47,1.24.62,1.62s.19.56.19.56-.09-.18-.24-.54-.38-.91-.66-1.6c-.57-1.41-1.46-3.47-2.44-6.19a154.9,154.9,0,0,1-6.85-23.48c-2.16-10.13-3.27-22.46-3.28-36.13,0-6.83.23-14,.57-21.43.2-3.71.35-7.49.66-11.33s.88-7.7,1.63-11.58a99.45,99.45,0,0,1,2.84-11.34,90.36,90.36,0,0,1,4-10.63,83.31,83.31,0,0,1,5.06-9.72c.89-1.56,1.91-3,2.87-4.48.49-.73,1-1.42,1.52-2.13s1-1.4,1.56-2.06A85,85,0,0,1,193,255.29a94.08,94.08,0,0,1,14.1-9.35,109.64,109.64,0,0,1,22.72-9l3.71-1,2.75-.61,1.69-.37Z" style="fill: rgb(38, 50, 56); transform-origin: 198.595px 328.3px;" id="elvvwz4dl94y" class="animable"></path><path d="M236.73,434.37s0-.17-.12-.5-.16-.85-.27-1.48c-.25-1.3-.6-3.21-1-5.69-.78-5-1.74-12.16-2.58-21.1a643.59,643.59,0,0,1-2.51-70c.51-27.37,2.79-52.17,6.55-69.74a106.46,106.46,0,0,1,6.06-20.35,45.12,45.12,0,0,1,2.62-5.15l.79-1.29a4.68,4.68,0,0,1,.28-.42l-.24.45-.73,1.31a48.53,48.53,0,0,0-2.54,5.18,110.23,110.23,0,0,0-5.88,20.35c-3.66,17.55-5.88,42.32-6.39,69.67a675.52,675.52,0,0,0,2.35,70c.8,8.93,1.71,16.13,2.42,21.1.34,2.48.66,4.4.87,5.7.1.64.17,1.13.23,1.49S236.73,434.37,236.73,434.37Z" style="fill: rgb(38, 50, 56); transform-origin: 238.344px 336.51px;" id="elm162ggcrg5" class="animable"></path><path d="M307.31,420.41l.21-.52c.16-.35.37-.85.65-1.48.56-1.32,1.5-3.2,2.48-5.72A175.53,175.53,0,0,0,318.11,391q.93-3.51,1.85-7.37c.51-2.59,1.18-5.25,1.61-8.07.24-1.4.48-2.82.73-4.27s.38-2.94.58-4.44.35-3,.48-4.58.33-3.12.38-4.72a128.44,128.44,0,0,0-3.95-41.22c-3.54-14.33-8-27.77-13.68-39.22a112.49,112.49,0,0,0-9.33-15.54,89.09,89.09,0,0,0-10.35-11.92,80,80,0,0,0-18.54-13.3c-2.41-1.22-4.31-2.12-5.63-2.65l-1.49-.65-.5-.23s.18.05.52.18l1.51.6c1.33.51,3.25,1.38,5.68,2.57a78.37,78.37,0,0,1,18.71,13.21,89.1,89.1,0,0,1,10.44,11.94,111.64,111.64,0,0,1,9.41,15.58c5.78,11.47,10.21,24.95,13.76,39.31a127.86,127.86,0,0,1,3.91,41.37c0,1.6-.26,3.17-.38,4.73s-.27,3.09-.5,4.59-.4,3-.59,4.45-.5,2.88-.74,4.29c-.44,2.82-1.12,5.49-1.65,8.08s-1.25,5-1.88,7.38a169.58,169.58,0,0,1-7.63,21.64c-1,2.51-2,4.38-2.57,5.68l-.7,1.46C307.41,420.24,307.31,420.41,307.31,420.41Z" style="fill: rgb(38, 50, 56); transform-origin: 292.392px 326.615px;" id="elbbl57v1mf2r" class="animable"></path><path d="M305.93,341.5s-8.37,21.89-10.18,21.56c-3.71-.67-16.12-17.32-16.12-17.32l-22.91,1.41-10.76,19a3,3,0,0,1-5.3-.17l-9.95-20.54L207.52,344,190.3,362a2.38,2.38,0,0,1-4-.84L178.39,339l-22.34-12.16v1.41c0,.85,4.59,70.48,90.78,74.66,0,0,71.54-3.11,83.41-69.28Z" style="fill: rgb(38, 50, 56); transform-origin: 243.145px 364.875px;" id="elmirp0bjfss9" class="animable"></path><path d="M303.89,284.71A4,4,0,0,1,307,284c1.33.47,1.74,2.11,1.95,3.51,1.36,8.92,2.55,18.72-2.24,26.38s-14.71,11-23.54,9.41-16.49-7.35-22-14.44C273.07,302.33,292,291.23,303.89,284.71Z" style="fill: rgb(38, 50, 56); transform-origin: 285.662px 303.809px;" id="el43zji3oebgx" class="animable"></path><path d="M183.47,284.71a4,4,0,0,0-3.09-.71c-1.33.47-1.74,2.11-1.95,3.51-1.36,8.92-2.55,18.72,2.24,26.38s14.71,11,23.54,9.41,16.49-7.35,22-14.44C214.29,302.33,195.37,291.23,183.47,284.71Z" style="fill: rgb(38, 50, 56); transform-origin: 201.718px 303.811px;" id="elselxv9py74" class="animable"></path><path d="M208.46,319c-8.84,1.56-18.79-1.8-23.55-9.41-4.6-7.36-3.67-16.72-2.39-25.37a2.93,2.93,0,0,0-2.14-.24c-1.33.47-1.74,2.11-1.95,3.51-1.36,8.92-2.55,18.72,2.24,26.38s14.71,11,23.54,9.41c7.95-1.4,14.94-6.23,20.26-12.35A33.39,33.39,0,0,1,208.46,319Z" style="fill: #F17313; transform-origin: 200.848px 303.773px;" id="elhdub5bpmyrp" class="animable"></path><path d="M308.93,287.51c-.21-1.4-.62-3-1.95-3.51a3.07,3.07,0,0,0-2.28.3s0,.06,0,.09c1.36,8.92,2.55,18.72-2.24,26.38s-14.71,11-23.54,9.41a31,31,0,0,1-11.27-4.51,33.15,33.15,0,0,0,15.49,7.63c8.83,1.56,18.78-1.81,23.54-9.41S310.29,296.43,308.93,287.51Z" style="fill: #F17313; transform-origin: 288.885px 303.788px;" id="elcgum2wnxkyh" class="animable"></path><path d="M247.55,396.8c-72-3.49-87-52.62-90.05-69.22l-1.45-.79v1.41c0,.85,4.59,70.48,90.78,74.66,0,0,71.54-3.11,83.41-69.28l-.62.2C314.51,393.88,247.55,396.8,247.55,396.8Z" style="fill: #F17313; transform-origin: 243.145px 364.825px;" id="elf2kwk891jco" class="animable"></path><g id="el2fisk6l3h6"><path d="M247.55,396.8c-72-3.49-87-52.62-90.05-69.22l-1.45-.79v1.41c0,.85,4.59,70.48,90.78,74.66,0,0,71.54-3.11,83.41-69.28l-.62.2C314.51,393.88,247.55,396.8,247.55,396.8Z" style="opacity: 0.3; transform-origin: 243.145px 364.825px;" class="animable" id="el3varno4rcfp"></path></g><polygon points="233.18 332.23 253.12 332.23 243.15 313.67 233.18 332.23" style="fill: rgb(38, 50, 56); transform-origin: 243.15px 322.95px;" id="elqalmmgd6s3a" class="animable"></polygon><g id="elbttettsqd75"><g style="opacity: 0.3; transform-origin: 200.848px 303.773px;" class="animable" id="eltxwtfdwvk0s"><path d="M208.46,319c-8.84,1.56-18.79-1.8-23.55-9.41-4.6-7.36-3.67-16.72-2.39-25.37a2.93,2.93,0,0,0-2.14-.24c-1.33.47-1.74,2.11-1.95,3.51-1.36,8.92-2.55,18.72,2.24,26.38s14.71,11,23.54,9.41c7.95-1.4,14.94-6.23,20.26-12.35A33.39,33.39,0,0,1,208.46,319Z" id="el2lvg0j2yceo" class="animable" style="transform-origin: 200.848px 303.773px;"></path></g></g><g id="els7n4pczvukk"><g style="opacity: 0.3; transform-origin: 288.885px 303.788px;" class="animable" id="elm84l8dj26zr"><path d="M308.93,287.51c-.21-1.4-.62-3-1.95-3.51a3.07,3.07,0,0,0-2.28.3s0,.06,0,.09c1.36,8.92,2.55,18.72-2.24,26.38s-14.71,11-23.54,9.41a31,31,0,0,1-11.27-4.51,33.15,33.15,0,0,0,15.49,7.63c8.83,1.56,18.78-1.81,23.54-9.41S310.29,296.43,308.93,287.51Z" id="elec7f3pimqc" class="animable" style="transform-origin: 288.885px 303.788px;"></path></g></g><path d="M120.05,303.78a3.64,3.64,0,0,1,.71.37l2,1.17,7.26,4.36c6.13,3.69,14.58,8.8,24.06,14.21s18.23,10,24.64,13.15c3.2,1.58,5.81,2.84,7.62,3.7l2.07,1a4,4,0,0,1,.71.38,4.64,4.64,0,0,1-.75-.29l-2.12-.91c-1.83-.8-4.46-2-7.69-3.55-6.46-3.08-15.25-7.62-24.74-13s-17.91-10.58-24-14.35l-7.17-4.5c-.81-.52-1.46-.93-1.94-1.25A5.92,5.92,0,0,1,120.05,303.78Z" style="fill: rgb(69, 90, 100); transform-origin: 154.585px 322.95px;" id="el6pzpmmpsucg" class="animable"></path><path d="M175,379a2.32,2.32,0,0,1-.52.16l-1.51.35c-1.31.3-3.21.68-5.57,1.12-4.73.88-11.29,1.9-18.59,2.64s-13.93,1-18.74,1.12c-2.4,0-4.34,0-5.69,0l-1.54-.05a1.8,1.8,0,0,1-.54-.05,3.37,3.37,0,0,1,.54,0l1.54-.05,5.68-.18c4.8-.17,11.42-.54,18.7-1.27s13.84-1.69,18.57-2.48l5.61-1,1.52-.25A1.84,1.84,0,0,1,175,379Z" style="fill: rgb(69, 90, 100); transform-origin: 148.65px 381.694px;" id="elp4cubgafba" class="animable"></path><path d="M371.63,301.18a6.52,6.52,0,0,1-.67.55l-1.95,1.5c-1.71,1.31-4.22,3.13-7.36,5.32s-6.94,4.73-11.23,7.44-9.08,5.55-14.19,8.4-10.09,5.37-14.64,7.59-8.73,4.09-12.26,5.58-6.4,2.67-8.41,3.42l-2.31.87a7,7,0,0,1-.82.27,5,5,0,0,1,.78-.37l2.27-1c2-.81,4.84-2,8.34-3.57s7.64-3.45,12.2-5.67,9.48-4.79,14.6-7.62,9.89-5.68,14.19-8.34,8.11-5.18,11.27-7.34,5.71-3.93,7.45-5.18l2-1.42A6.73,6.73,0,0,1,371.63,301.18Z" style="fill: rgb(69, 90, 100); transform-origin: 334.71px 321.65px;" id="el9z1slrvy7y4" class="animable"></path><path d="M354.15,386.74a10.19,10.19,0,0,1-1.68-.2l-4.55-.75c-3.83-.65-9.13-1.56-15-2.49s-11.19-1.66-15-2.23l-4.55-.68a11.31,11.31,0,0,1-1.67-.32,10,10,0,0,1,1.69.12l4.58.52c3.87.47,9.2,1.16,15.07,2.08s11.16,1.9,15,2.64l4.52.91A10.6,10.6,0,0,1,354.15,386.74Z" style="fill: rgb(69, 90, 100); transform-origin: 332.925px 383.404px;" id="el76i1tblfvy" class="animable"></path><g id="elfaet66mfvlj"><g style="opacity: 0.3; transform-origin: 244.465px 393.281px;" class="animable" id="el22ncdae8o2z"><path d="M316.61,381.14c-13.88,11.56-29.67,21.05-46.89,26.51s-35.94,6.75-53.46,2.32-33.71-14.8-43.94-29.69l53.87,4,59.46-6.73,28.24-3.63Z" id="el18i2puycnqo" class="animable" style="transform-origin: 244.465px 393.281px;"></path></g></g><path d="M171.47,331.6s47.33-4.24,68.12-4.18c22.45.06,76.31,4.18,76.31,4.18L319,381s-42.72,25.53-84.82,25.36c-28.86-.11-63.46-26.32-63.46-26.32Z" style="fill: rgb(69, 90, 100); transform-origin: 244.86px 366.89px;" id="eluc771fw8bgf" class="animable"></path><path d="M306.81,342.6h-.33l-1,0-3.68-.17-13.51-.58c-11.42-.44-27.2-.76-44.63-.84s-33.23-.11-44.65-.39c-5.7-.06-10.32.26-13.49.54l-3.67.35-1,.09a1.21,1.21,0,0,1-.33,0l.33-.06.94-.14c.84-.12,2.07-.27,3.66-.45a123.89,123.89,0,0,1,13.52-.71c11.43.19,27.2.16,44.64.24s33.23.46,44.64,1c5.71.27,10.33.54,13.51.75l3.67.27,1,.08A1.64,1.64,0,0,1,306.81,342.6Z" style="fill: rgb(38, 50, 56); transform-origin: 243.665px 341.42px;" id="elpmr7p85xy5d" class="animable"></path><path d="M178.87,386.06c-.14,0,.16-12.23.66-27.3s1-27.3,1.18-27.29-.15,12.23-.66,27.3S179,386.06,178.87,386.06Z" style="fill: rgb(38, 50, 56); transform-origin: 179.798px 358.765px;" id="elifohhwmtd6f" class="animable"></path><path d="M308.35,385.31a2.2,2.2,0,0,1,0-.56c0-.42,0-.95,0-1.6,0-1.47,0-3.47,0-5.9-.05-5-.19-11.87-.59-19.45s-1-14.45-1.47-19.41c-.24-2.42-.44-4.41-.59-5.87-.06-.65-.11-1.17-.15-1.6a2.4,2.4,0,0,1,0-.56,2.91,2.91,0,0,1,.12.55c.06.42.14.94.24,1.59.21,1.38.47,3.38.76,5.85.58,4.95,1.22,11.82,1.62,19.42s.49,14.49.43,19.48c0,2.49-.07,4.51-.13,5.9l-.08,1.6A2.05,2.05,0,0,1,308.35,385.31Z" style="fill: rgb(38, 50, 56); transform-origin: 307.135px 357.835px;" id="el98e25ma7ah6" class="animable"></path><path d="M308.15,373.92a1.63,1.63,0,0,1-.29.21l-.87.56c-.77.47-1.88,1.24-3.39,2.08a116.65,116.65,0,0,1-13.05,6.61c-2.83,1.24-6,2.45-9.43,3.64S274,389.3,270,390.22a122.25,122.25,0,0,1-52.8.95c-4-.78-7.77-1.79-11.26-2.79s-6.68-2.16-9.56-3.3a119.13,119.13,0,0,1-13.28-6.14c-1.53-.79-2.67-1.51-3.46-2l-.89-.53c-.2-.12-.3-.18-.29-.19a1.58,1.58,0,0,1,.32.15l.91.48c.81.42,2,1.11,3.51,1.88a127.25,127.25,0,0,0,13.31,6c2.88,1.12,6.08,2.19,9.55,3.23s7.23,2,11.24,2.74a123.59,123.59,0,0,0,52.59-.94c4-.91,7.68-2,11.12-3.15s6.6-2.35,9.43-3.57a127.5,127.5,0,0,0,13.09-6.44c1.52-.82,2.65-1.55,3.44-2l.89-.52Z" style="fill: rgb(38, 50, 56); transform-origin: 243.305px 383.76px;" id="el75m2jqc6ts6" class="animable"></path><path d="M308,363.94a1.4,1.4,0,0,1-.32.12l-.94.29-3.66,1.08c-3.17.95-7.8,2.19-13.53,3.65s-12.63,3-20.36,4.26c-3.85.72-7.93,1.19-12.16,1.76l-6.47.58c-1.1.12-2.2.18-3.32.21l-3.37.15a144,144,0,0,1-25.43-1.28c-1.94-.29-3.81-.68-5.64-1-.91-.18-1.81-.33-2.69-.51l-2.58-.65-4.89-1.24-4.42-1.43c-2.85-.84-5.31-1.9-7.5-2.76-1.09-.45-2.12-.83-3-1.24l-2.49-1.19-3.43-1.66-.88-.45-.3-.16a1.14,1.14,0,0,1,.32.12l.91.39,3.47,1.58,2.5,1.15c.93.39,2,.76,3.05,1.19,2.19.83,4.66,1.87,7.5,2.68l4.42,1.39,4.88,1.21,2.57.63c.88.18,1.78.33,2.69.5,1.82.31,3.69.7,5.62,1a146.07,146.07,0,0,0,25.35,1.24l3.35-.15c1.12,0,2.22-.09,3.31-.21l6.46-.57c4.21-.56,8.29-1,12.13-1.72,7.72-1.24,14.59-2.82,20.35-4.15s10.38-2.59,13.57-3.49l3.68-1,1-.24A1.24,1.24,0,0,1,308,363.94Z" style="fill: rgb(38, 50, 56); transform-origin: 244.31px 369.308px;" id="elfz6hrckho39" class="animable"></path><path d="M307.71,354a1.45,1.45,0,0,1-.33.06l-1,.13-3.7.46c-1.61.2-3.58.42-5.87.64s-4.9.5-7.79.71c-5.77.5-12.66.9-20.31,1.22s-16.08.41-24.92.32-17.27-.49-24.92-.95-14.52-1.09-20.28-1.74c-2.88-.28-5.48-.62-7.76-.91s-4.25-.54-5.85-.78l-3.69-.56-1-.15-.32-.07.33,0,1,.1,3.7.46c1.61.21,3.58.45,5.86.69s4.89.57,7.77.83c5.76.6,12.63,1.14,20.27,1.63s16.06.78,24.89.9,17.25,0,24.9-.27,14.53-.66,20.3-1.11c2.89-.19,5.5-.44,7.79-.63s4.27-.38,5.88-.55l3.71-.36,1-.08A1.19,1.19,0,0,1,307.71,354Z" style="fill: rgb(38, 50, 56); transform-origin: 243.84px 354.977px;" id="elji3a82qxfnd" class="animable"></path><g id="elkgf94uac6n"><g style="opacity: 0.3; transform-origin: 192.802px 281.19px;" class="animable" id="elmw7xmj0zzk"><path d="M175.61,268.32C163.76,284.32,159.45,303,160,323v.38c1.27-17.87,10.07-41.56,21.41-55.44A88.17,88.17,0,0,1,225.65,239C205.84,240.94,187.47,252.33,175.61,268.32Z" id="elakj4hvjy85n" class="animable" style="transform-origin: 192.802px 281.19px;"></path></g></g><g id="elkh0x6uug6e"><g style="opacity: 0.3; transform-origin: 316.267px 296.105px;" class="animable" id="elgo1agktc19k"><path d="M325.51,327.76a2.74,2.74,0,0,1-.05-.68c0-.5,0-1.15,0-2s0-1.88-.07-3.09-.07-2.57-.21-4.08-.23-3.17-.46-4.94-.49-3.65-.8-5.63a106.39,106.39,0,0,0-7.39-24.93c-.83-1.83-1.58-3.57-2.41-5.16s-1.57-3.06-2.3-4.39-1.44-2.5-2.05-3.54-1.16-1.91-1.63-2.62l-1-1.65a4,4,0,0,1-.34-.6,3.28,3.28,0,0,1,.42.54l1.13,1.59c.49.7,1.08,1.56,1.71,2.59s1.39,2.18,2.12,3.51,1.58,2.77,2.37,4.38,1.62,3.33,2.46,5.16a101.94,101.94,0,0,1,7.43,25c.29,2,.59,3.88.75,5.66s.31,3.45.4,5,.1,2.9.13,4.11,0,2.25,0,3.1-.05,1.45-.07,1.95A3,3,0,0,1,325.51,327.76Z" id="eld92lgbknsru" class="animable" style="transform-origin: 316.267px 296.105px;"></path></g></g><path d="M223.24,228.41a1,1,0,0,1-.3.05l-.9.09-3.44.3-2.49.2c-.9.1-1.88.28-2.93.43-2.1.35-4.52.6-7.12,1.26l-4.1.93c-1.42.33-2.87.83-4.38,1.26-3.05.8-6.18,2.06-9.5,3.29A111.92,111.92,0,0,0,150,261.6c-2.42,2.59-4.78,5-6.7,7.5-1,1.23-2,2.37-2.85,3.55s-1.65,2.34-2.43,3.44c-1.61,2.14-2.77,4.27-3.9,6.08-.55.91-1.09,1.74-1.53,2.54l-1.14,2.22-1.6,3.06-.43.79c-.1.18-.15.27-.16.26a1.27,1.27,0,0,1,.11-.28c.1-.21.23-.48.38-.81.36-.75.87-1.79,1.52-3.11l1.1-2.25c.43-.8,1-1.65,1.5-2.57,1.11-1.82,2.25-4,3.85-6.14l2.41-3.47c.85-1.2,1.86-2.34,2.84-3.59,1.91-2.52,4.27-4.95,6.68-7.56a121.46,121.46,0,0,1,17.79-14.75,119.49,119.49,0,0,1,20.46-10.73c3.33-1.23,6.48-2.47,9.55-3.27,1.52-.42,3-.91,4.4-1.23l4.13-.9c2.61-.64,5-.87,7.15-1.19,1.06-.14,2-.3,3-.39l2.5-.16,3.45-.2.9,0Z" style="fill: rgb(255, 255, 255); transform-origin: 176.25px 259.725px;" id="el1ql2u3menro" class="animable"></path><path d="M163.73,320.88a4.71,4.71,0,0,1,.07-.68c.08-.49.18-1.13.31-1.92.27-1.67.69-4.08,1.26-7a129.25,129.25,0,0,1,6.25-22.77,62.59,62.59,0,0,1,12.35-20,43.28,43.28,0,0,1,5.33-4.8c.66-.53,1.22-.87,1.59-1.13a3.53,3.53,0,0,1,.57-.36,2.73,2.73,0,0,1-.51.45c-.35.28-.89.65-1.53,1.2a48.5,48.5,0,0,0-5.18,4.89,64.47,64.47,0,0,0-12.14,20,139.88,139.88,0,0,0-6.37,22.65l-1.42,7c-.17.78-.3,1.41-.4,1.9A3.36,3.36,0,0,1,163.73,320.88Z" style="fill: rgb(255, 255, 255); transform-origin: 177.595px 291.55px;" id="elw1qteew8u3j" class="animable"></path><path d="M236.86,314.59a8.83,8.83,0,0,1-.14-1.42c-.06-.91-.11-2.23-.14-3.87-.07-3.27,0-7.79.27-12.77s.82-9.48,1.29-12.71c.23-1.62.44-2.92.61-3.82a8.45,8.45,0,0,1,.31-1.39A6.54,6.54,0,0,1,239,280c-.12,1-.27,2.29-.45,3.84-.37,3.24-.82,7.72-1.13,12.69s-.4,9.48-.43,12.74c0,1.55,0,2.85,0,3.86A6.79,6.79,0,0,1,236.86,314.59Z" style="fill: rgb(255, 255, 255); transform-origin: 237.814px 296.6px;" id="ell1cb4g6yix" class="animable"></path><path d="M339.13,259.33a2.39,2.39,0,0,1-.39-.46l-1-1.35c-.44-.6-1-1.33-1.67-2.12s-1.41-1.75-2.34-2.7l-1.41-1.51c-.49-.53-1.05-1-1.61-1.57-1.09-1.11-2.37-2.16-3.7-3.3a71,71,0,0,0-9.34-6.44,72.64,72.64,0,0,0-10.3-4.74c-1.66-.55-3.22-1.11-4.73-1.49-.75-.2-1.47-.42-2.17-.58l-2-.44c-1.29-.31-2.47-.45-3.51-.63s-1.93-.28-2.67-.35l-1.7-.19a2.33,2.33,0,0,1-.59-.11h.6l1.71.1c.74,0,1.65.11,2.69.27s2.24.26,3.54.55l2,.41c.71.15,1.43.36,2.19.55,1.52.36,3.1.91,4.78,1.46a69.32,69.32,0,0,1,10.4,4.74,68.42,68.42,0,0,1,9.39,6.52c1.32,1.16,2.6,2.23,3.69,3.36.55.55,1.11,1.06,1.6,1.6l1.4,1.55c.91,1,1.62,1.94,2.28,2.76a23.31,23.31,0,0,1,1.61,2.18l1,1.41A3,3,0,0,1,339.13,259.33Z" style="fill: rgb(255, 255, 255); transform-origin: 314.565px 245.34px;" id="el3f6rr4n5k1r" class="animable"></path><path d="M168.16,401.85a67.27,67.27,0,0,1-2.89-11.56A34.16,34.16,0,0,1,167,396,34.58,34.58,0,0,1,168.16,401.85Z" style="fill: rgb(255, 255, 255); transform-origin: 166.715px 396.07px;" id="elybixhxuenkb" class="animable"></path><path d="M242.29,426a12.22,12.22,0,0,1-.93-10.85,29.71,29.71,0,0,0-.3,5.49A30.44,30.44,0,0,0,242.29,426Z" style="fill: rgb(255, 255, 255); transform-origin: 241.397px 420.575px;" id="el8pz43zze1do" class="animable"></path><path d="M319.93,401.5a12.18,12.18,0,0,1,1-3.35,11.92,11.92,0,0,1,1.51-3.16,12.18,12.18,0,0,1-1,3.35A11.72,11.72,0,0,1,319.93,401.5Z" style="fill: rgb(255, 255, 255); transform-origin: 321.185px 398.245px;" id="elkh76nnm8ohd" class="animable"></path><path d="M123.83,350.72a3.31,3.31,0,0,1-.25-1c-.13-.65-.29-1.59-.44-2.75a73.41,73.41,0,0,1-.07-18.34c.15-1.17.29-2.11.42-2.76a4.07,4.07,0,0,1,.24-1,37.08,37.08,0,0,1-.29,3.78c-.2,2.34-.4,5.57-.39,9.14s.24,6.79.46,9.13S123.9,350.71,123.83,350.72Z" style="fill: rgb(255, 255, 255); transform-origin: 123.188px 337.795px;" id="el07100c6zc09" class="animable"></path><g id="eldnkuy07eon"><g style="opacity: 0.2; transform-origin: 243.365px 357.756px;" class="animable" id="eld0fnfiwdagi"><path d="M181.35,352.67a223.52,223.52,0,0,0,114.15,5.07c3.54-.77,7.24-1.72,9.88-4.21a502.47,502.47,0,0,1-115.57,0" id="elmxzrbwadxpj" class="animable" style="transform-origin: 243.365px 357.756px;"></path></g></g><g id="elqtwg6lawgti"><g style="opacity: 0.2; transform-origin: 242.575px 372.202px;" class="animable" id="ele895mzm5kaf"><path d="M190.17,367.39,183.64,364C219,381,251.81,377.43,289.44,369.2c3.54-.78,12.07-3.52,12.07-3.52C291.76,376.44,225.37,391.73,190.17,367.39Z" id="el2wpno2rlqch" class="animable" style="transform-origin: 242.575px 372.202px;"></path></g></g></g><defs>     <filter id="active" height="200%">         <feMorphology in="SourceAlpha" result="DILATED" operator="dilate" radius="2"></feMorphology>                <feFlood flood-color="#32DFEC" flood-opacity="1" result="PINK"></feFlood>        <feComposite in="PINK" in2="DILATED" operator="in" result="OUTLINE"></feComposite>        <feMerge>            <feMergeNode in="OUTLINE"></feMergeNode>            <feMergeNode in="SourceGraphic"></feMergeNode>        </feMerge>    </filter>    <filter id="hover" height="200%">        <feMorphology in="SourceAlpha" result="DILATED" operator="dilate" radius="2"></feMorphology>                <feFlood flood-color="#ff0000" flood-opacity="0.5" result="PINK"></feFlood>        <feComposite in="PINK" in2="DILATED" operator="in" result="OUTLINE"></feComposite>        <feMerge>            <feMergeNode in="OUTLINE"></feMergeNode>            <feMergeNode in="SourceGraphic"></feMergeNode>        </feMerge>            <feColorMatrix type="matrix" values="0   0   0   0   0                0   1   0   0   0                0   0   0   0   0                0   0   0   1   0 "></feColorMatrix>    </filter></defs></svg>